<?xml version="1.0" encoding="UTF-8"?>
<svg xmlns="http://www.w3.org/2000/svg" viewBox="0 0 880 380" font-family="Segoe UI, Arial, sans-serif">
  <defs>
    <filter id="s"><feDropShadow dx="0" dy="2" stdDeviation="4" flood-color="#000" flood-opacity="0.08"/></filter>
    <marker id="a" markerWidth="10" markerHeight="10" refX="8" refY="3" orient="auto"><path d="M0,0 L8,3 L0,6 Z" fill="#0f766e"/></marker>
  </defs>
  <rect width="880" height="380" fill="#f8fafc" rx="16"/>
  <text x="440" y="36" text-anchor="middle" fill="#0f766e" font-size="18" font-weight="700">Evolucion del almacenamiento de datos</text>
  <g filter="url(#s)">
    <rect x="40" y="60" width="360" height="280" rx="16" fill="#fff" stroke="#fca5a5" stroke-width="2"/>
    <rect x="40" y="60" width="360" height="44" rx="16" fill="#fef2f2"/>
    <text x="220" y="90" text-anchor="middle" fill="#991b1b" font-size="15" font-weight="700">Sin base de datos</text>
  </g>
  <rect x="70" y="130" width="120" height="70" rx="8" fill="#fee2e2" stroke="#fecaca"/>
  <text x="130" y="165" text-anchor="middle" fill="#7f1d1d" font-size="11" font-weight="600">factors.csv</text>
  <rect x="210" y="130" width="160" height="70" rx="8" fill="#fee2e2" stroke="#fecaca"/>
  <text x="290" y="165" text-anchor="middle" fill="#7f1d1d" font-size="11" font-weight="600">guiosad_data.csv</text>
  <text x="220" y="240" text-anchor="middle" fill="#64748b" font-size="12">Sin usuarios</text>
  <text x="220" y="265" text-anchor="middle" fill="#64748b" font-size="12">Sin historial</text>
  <text x="220" y="290" text-anchor="middle" fill="#64748b" font-size="12">Sin re-evaluaciones</text>
  <path d="M420 200 L460 200" stroke="#0f766e" stroke-width="3" marker-end="url(#a)"/>
  <text x="440" y="185" text-anchor="middle" fill="#0f766e" font-size="12" font-weight="600">Mejora</text>
  <g filter="url(#s)">
    <rect x="480" y="60" width="360" height="280" rx="16" fill="#fff" stroke="#0f766e" stroke-width="2"/>
    <rect x="480" y="60" width="360" height="44" rx="16" fill="#f0fdfa"/>
    <text x="660" y="90" text-anchor="middle" fill="#0f766e" font-size="15" font-weight="700">SQLite + SQLAlchemy</text>
  </g>
  <ellipse cx="660" cy="175" rx="95" ry="55" fill="#ccfbf1" stroke="#0f766e" stroke-width="2"/>
  <text x="660" y="168" text-anchor="middle" fill="#0f766e" font-size="13" font-weight="700">guiospro.db</text>
  <text x="660" y="188" text-anchor="middle" fill="#115e59" font-size="11">9 tablas</text>
  <text x="660" y="265" text-anchor="middle" fill="#64748b" font-size="12">Login y roles</text>
  <text x="660" y="290" text-anchor="middle" fill="#64748b" font-size="12">Historial por organizacion</text>
  <text x="660" y="315" text-anchor="middle" fill="#64748b" font-size="12">Re-evaluaciones vinculadas</text>
</svg>
