<?xml version="1.0" encoding="UTF-8"?>
<svg xmlns="http://www.w3.org/2000/svg" viewBox="0 0 920 520" font-family="Segoe UI, Arial, sans-serif">
  <defs>
    <linearGradient id="bg" x1="0%" y1="0%" x2="100%" y2="100%"><stop offset="0%" stop-color="#f0fdfa"/><stop offset="100%" stop-color="#f8fafc"/></linearGradient>
    <filter id="shadow"><feDropShadow dx="0" dy="2" stdDeviation="4" flood-color="#0f766e" flood-opacity="0.12"/></filter>
    <marker id="arrow" markerWidth="8" markerHeight="8" refX="6" refY="3" orient="auto"><path d="M0,0 L6,3 L0,6 Z" fill="#64748b"/></marker>
  </defs>
  <rect width="920" height="520" fill="url(#bg)" rx="16"/>
  <text x="460" y="36" text-anchor="middle" fill="#0f766e" font-size="18" font-weight="700">Modelo conceptual - entidades y relaciones</text>
  <g filter="url(#shadow)"><rect x="40" y="70" width="150" height="56" rx="10" fill="#0f766e"/><text x="115" y="104" text-anchor="middle" fill="#fff" font-size="13" font-weight="600">ORGANIZACIONES</text></g>
  <g filter="url(#shadow)"><rect x="40" y="180" width="150" height="56" rx="10" fill="#fff" stroke="#0f766e" stroke-width="2"/><text x="115" y="214" text-anchor="middle" fill="#0f172a" font-size="13" font-weight="600">USUARIOS</text></g>
  <g filter="url(#shadow)"><rect x="280" y="125" width="160" height="56" rx="10" fill="#fff" stroke="#0f766e" stroke-width="2"/><text x="360" y="159" text-anchor="middle" fill="#0f172a" font-size="13" font-weight="600">EVALUACIONES</text></g>
  <g filter="url(#shadow)"><rect x="520" y="60" width="140" height="48" rx="8" fill="#115e59"/><text x="590" y="90" text-anchor="middle" fill="#fff" font-size="12" font-weight="600">DIMENSIONES</text></g>
  <g filter="url(#shadow)"><rect x="520" y="130" width="140" height="48" rx="8" fill="#fff" stroke="#115e59" stroke-width="2"/><text x="590" y="160" text-anchor="middle" fill="#0f172a" font-size="12" font-weight="600">FACTORES</text></g>
  <g filter="url(#shadow)"><rect x="520" y="200" width="140" height="48" rx="8" fill="#fff" stroke="#115e59" stroke-width="2"/><text x="590" y="230" text-anchor="middle" fill="#0f172a" font-size="12" font-weight="600">SUBFACTORES</text></g>
  <g filter="url(#shadow)"><rect x="280" y="240" width="175" height="48" rx="8" fill="#fff" stroke="#0d9488" stroke-width="2"/><text x="367" y="270" text-anchor="middle" fill="#0f172a" font-size="11" font-weight="600">EVALUACION_FACTORES</text></g>
  <g filter="url(#shadow)"><rect x="280" y="310" width="195" height="48" rx="8" fill="#fff" stroke="#0d9488" stroke-width="2"/><text x="377" y="340" text-anchor="middle" fill="#0f172a" font-size="11" font-weight="600">EVALUACION_SUBFACTORES</text></g>
  <g filter="url(#shadow)"><rect x="40" y="310" width="150" height="56" rx="10" fill="#fff" stroke="#64748b" stroke-width="2"/><text x="115" y="344" text-anchor="middle" fill="#0f172a" font-size="13" font-weight="600">AUDITORIA</text></g>
  <line x1="115" y1="126" x2="115" y2="180" stroke="#64748b" stroke-width="1.5" marker-end="url(#arrow)"/>
  <line x1="190" y1="208" x2="280" y2="153" stroke="#64748b" stroke-width="1.5" marker-end="url(#arrow)"/>
  <line x1="440" y1="153" x2="520" y2="154" stroke="#64748b" stroke-width="1.5" marker-end="url(#arrow)"/>
  <line x1="360" y1="181" x2="367" y2="240" stroke="#64748b" stroke-width="1.5" marker-end="url(#arrow)"/>
  <path d="M360 181 Q360 95 440 95 Q500 95 500 125" fill="none" stroke="#94a3b8" stroke-width="1.5" stroke-dasharray="5,4" marker-end="url(#arrow)"/>
  <text x="470" y="88" fill="#64748b" font-size="10">re-evalua</text>
  <rect x="680" y="300" width="210" height="160" rx="12" fill="#fff" stroke="#e2e8f0"/>
  <text x="785" y="328" text-anchor="middle" fill="#0f766e" font-size="13" font-weight="700">Leyenda</text>
  <rect x="700" y="345" width="24" height="16" rx="4" fill="#0f766e"/><text x="735" y="358" fill="#475569" font-size="11">Entidad principal</text>
  <rect x="700" y="375" width="24" height="16" rx="4" fill="#fff" stroke="#0f766e" stroke-width="1.5"/><text x="735" y="388" fill="#475569" font-size="11">Entidad operativa</text>
  <rect x="700" y="405" width="24" height="16" rx="4" fill="#115e59"/><text x="735" y="418" fill="#475569" font-size="11">Catalogo GUIOSAD</text>
</svg>
