<?xml version="1.0" encoding="UTF-8"?>
<svg xmlns="http://www.w3.org/2000/svg" viewBox="0 0 880 420" font-family="Segoe UI, Arial, sans-serif">
  <defs>
    <linearGradient id="g1" x1="0%" y1="0%" x2="0%" y2="100%"><stop offset="0%" stop-color="#f0fdfa"/><stop offset="100%" stop-color="#ecfeff"/></linearGradient>
    <filter id="sh"><feDropShadow dx="0" dy="3" stdDeviation="5" flood-color="#0f766e" flood-opacity="0.15"/></filter>
    <marker id="arr" markerWidth="10" markerHeight="10" refX="8" refY="3" orient="auto"><path d="M0,0 L8,3 L0,6 Z" fill="#0f766e"/></marker>
  </defs>
  <rect width="880" height="420" fill="url(#g1)" rx="16"/>
  <text x="440" y="38" text-anchor="middle" fill="#0f766e" font-size="18" font-weight="700">Flujo de persistencia - Evaluacion de Odoo</text>
  <g filter="url(#sh)"><rect x="40" y="80" width="130" height="72" rx="12" fill="#0f766e"/><text x="105" y="108" text-anchor="middle" fill="#ccfbf1" font-size="11">PASO 1</text><text x="105" y="132" text-anchor="middle" fill="#fff" font-size="12" font-weight="600">evaluaciones</text></g>
  <g filter="url(#sh)"><rect x="210" y="80" width="150" height="72" rx="12" fill="#fff" stroke="#0f766e" stroke-width="2"/><text x="285" y="108" text-anchor="middle" fill="#64748b" font-size="11">PASO 2</text><text x="285" y="132" text-anchor="middle" fill="#0f172a" font-size="11" font-weight="600">evaluacion_factores</text></g>
  <g filter="url(#sh)"><rect x="400" y="80" width="165" height="72" rx="12" fill="#fff" stroke="#0f766e" stroke-width="2"/><text x="482" y="108" text-anchor="middle" fill="#64748b" font-size="11">PASO 3</text><text x="482" y="132" text-anchor="middle" fill="#0f172a" font-size="11" font-weight="600">evaluacion_subfactores</text></g>
  <g filter="url(#sh)"><rect x="605" y="80" width="130" height="72" rx="12" fill="#fff" stroke="#0f766e" stroke-width="2"/><text x="670" y="108" text-anchor="middle" fill="#64748b" font-size="11">PASO 4</text><text x="670" y="132" text-anchor="middle" fill="#0f172a" font-size="12" font-weight="600">evaluaciones</text></g>
  <g filter="url(#sh)"><rect x="770" y="80" width="90" height="72" rx="12" fill="#115e59"/><text x="815" y="108" text-anchor="middle" fill="#ccfbf1" font-size="11">PASO 5</text><text x="815" y="132" text-anchor="middle" fill="#fff" font-size="12" font-weight="600">auditoria</text></g>
  <line x1="170" y1="116" x2="210" y2="116" stroke="#0f766e" stroke-width="2" marker-end="url(#arr)"/>
  <line x1="360" y1="116" x2="400" y2="116" stroke="#0f766e" stroke-width="2" marker-end="url(#arr)"/>
  <line x1="565" y1="116" x2="605" y2="116" stroke="#0f766e" stroke-width="2" marker-end="url(#arr)"/>
  <line x1="735" y1="116" x2="770" y2="116" stroke="#0f766e" stroke-width="2" marker-end="url(#arr)"/>
  <rect x="40" y="200" width="800" height="190" rx="14" fill="#fff" stroke="#e2e8f0"/>
  <text x="60" y="230" fill="#0f766e" font-size="14" font-weight="700">Operaciones SQL (conceptual)</text>
  <text x="60" y="265" fill="#0f172a" font-size="12">INSERT evaluaciones - software_nombre=Odoo, estado=borrador</text>
  <text x="60" y="292" fill="#0f172a" font-size="12">INSERT evaluacion_factores - 18 filas (importancia, alcance, FODA)</text>
  <text x="60" y="319" fill="#0f172a" font-size="12">UPDATE evaluacion_subfactores - valor 1-4 por criterio</text>
  <text x="60" y="346" fill="#0f172a" font-size="12">UPDATE evaluaciones - recomendacion A/B/C, estado=completada</text>
  <text x="60" y="373" fill="#0f172a" font-size="12">INSERT auditoria - crear, guardar_borrador, completar</text>
</svg>
