<?xml version="1.0" encoding="UTF-8"?>
<svg xmlns="http://www.w3.org/2000/svg" viewBox="0 0 880 300" font-family="Segoe UI, Arial, sans-serif">
  <rect width="880" height="300" fill="#0f172a" rx="16"/>
  <text x="440" y="38" text-anchor="middle" fill="#ccfbf1" font-size="18" font-weight="700">9 tablas - diseno logico agrupado</text>
  <g><rect x="40" y="70" width="190" height="200" rx="12" fill="#1e293b" stroke="#0f766e" stroke-width="2"/><text x="135" y="98" text-anchor="middle" fill="#5eead4" font-size="13" font-weight="700">Seguridad</text><rect x="60" y="115" width="150" height="32" rx="6" fill="#0f766e"/><text x="135" y="136" text-anchor="middle" fill="#fff" font-size="11">organizaciones</text><rect x="60" y="158" width="150" height="32" rx="6" fill="#134e4a"/><text x="135" y="179" text-anchor="middle" fill="#fff" font-size="11">usuarios</text></g>
  <g><rect x="250" y="70" width="190" height="200" rx="12" fill="#1e293b" stroke="#115e59" stroke-width="2"/><text x="345" y="98" text-anchor="middle" fill="#5eead4" font-size="13" font-weight="700">Catalogo</text><rect x="270" y="115" width="150" height="28" rx="6" fill="#115e59"/><text x="345" y="134" text-anchor="middle" fill="#fff" font-size="10">dimensiones (3)</text><rect x="270" y="150" width="150" height="28" rx="6" fill="#0f766e"/><text x="345" y="169" text-anchor="middle" fill="#fff" font-size="10">factores (18)</text><rect x="270" y="185" width="150" height="28" rx="6" fill="#134e4a"/><text x="345" y="204" text-anchor="middle" fill="#fff" font-size="10">subfactores (61)</text></g>
  <g><rect x="460" y="70" width="220" height="200" rx="12" fill="#1e293b" stroke="#0d9488" stroke-width="2"/><text x="570" y="98" text-anchor="middle" fill="#5eead4" font-size="13" font-weight="700">Evaluaciones</text><rect x="480" y="115" width="180" height="28" rx="6" fill="#0d9488"/><text x="570" y="134" text-anchor="middle" fill="#fff" font-size="10">evaluaciones</text><rect x="480" y="150" width="180" height="28" rx="6" fill="#0f766e"/><text x="570" y="169" text-anchor="middle" fill="#fff" font-size="10">evaluacion_factores</text><rect x="480" y="185" width="180" height="28" rx="6" fill="#134e4a"/><text x="570" y="204" text-anchor="middle" fill="#fff" font-size="10">evaluacion_subfactores</text></g>
  <g><rect x="700" y="70" width="140" height="200" rx="12" fill="#1e293b" stroke="#64748b" stroke-width="2"/><text x="770" y="98" text-anchor="middle" fill="#5eead4" font-size="13" font-weight="700">Trazabilidad</text><rect x="720" y="130" width="100" height="36" rx="6" fill="#334155"/><text x="770" y="153" text-anchor="middle" fill="#fff" font-size="11">auditoria</text></g>
  <text x="440" y="288" text-anchor="middle" fill="#64748b" font-size="11">SQLite (data/guiospro.db) - ORM SQLAlchemy</text>
</svg>
