<?xml version="1.0" encoding="UTF-8"?>
<svg xmlns="http://www.w3.org/2000/svg" viewBox="0 0 880 340" font-family="Segoe UI, Arial, sans-serif">
  <rect width="880" height="340" fill="#f8fafc" rx="16"/>
  <text x="440" y="36" text-anchor="middle" fill="#0f766e" font-size="18" font-weight="700">Reglas de integridad y negocio</text>
  <rect x="40" y="60" width="250" height="240" rx="14" fill="#fff" stroke="#0f766e" stroke-width="2"/>
  <circle cx="70" cy="90" r="18" fill="#0f766e"/><text x="70" y="96" text-anchor="middle" fill="#fff" font-size="14" font-weight="700">1</text>
  <text x="165" y="85" text-anchor="middle" fill="#0f172a" font-size="13" font-weight="700">Usuario - Organizacion</text>
  <text x="165" y="108" text-anchor="middle" fill="#64748b" font-size="11">Relacion N:1</text>
  <rect x="70" y="130" width="80" height="36" rx="6" fill="#0f766e"/><text x="110" y="153" text-anchor="middle" fill="#fff" font-size="10">ORG</text>
  <rect x="70" y="190" width="80" height="28" rx="6" fill="#ecfdf5" stroke="#0f766e"/><text x="110" y="209" text-anchor="middle" fill="#0f766e" font-size="9">USER</text>
  <rect x="160" y="190" width="80" height="28" rx="6" fill="#ecfdf5" stroke="#0f766e"/><text x="200" y="209" text-anchor="middle" fill="#0f766e" font-size="9">USER</text>
  <line x1="110" y1="166" x2="110" y2="190" stroke="#64748b" stroke-width="1.5"/><line x1="110" y1="166" x2="200" y2="190" stroke="#64748b" stroke-width="1.5"/>
  <text x="165" y="250" text-anchor="middle" fill="#475569" font-size="10">organizacion_id FK</text>
  <rect x="315" y="60" width="250" height="240" rx="14" fill="#fff" stroke="#0d9488" stroke-width="2"/>
  <circle cx="345" cy="90" r="18" fill="#0d9488"/><text x="345" y="96" text-anchor="middle" fill="#fff" font-size="14" font-weight="700">2</text>
  <text x="440" y="85" text-anchor="middle" fill="#0f172a" font-size="13" font-weight="700">UNIQUE por evaluacion</text>
  <rect x="345" y="135" width="190" height="100" rx="8" fill="#f0fdfa" stroke="#99f6e4"/>
  <text x="440" y="165" text-anchor="middle" fill="#0f766e" font-size="10" font-family="Consolas, monospace">UNIQUE (evaluacion_id,</text>
  <text x="440" y="185" text-anchor="middle" fill="#0f766e" font-size="10" font-family="Consolas, monospace">factor_id)</text>
  <text x="440" y="265" text-anchor="middle" fill="#475569" font-size="10">1 factor = 1 fila por evaluacion</text>
  <rect x="590" y="60" width="250" height="240" rx="14" fill="#fff" stroke="#115e59" stroke-width="2"/>
  <circle cx="620" cy="90" r="18" fill="#115e59"/><text x="620" y="96" text-anchor="middle" fill="#fff" font-size="14" font-weight="700">3</text>
  <text x="715" y="85" text-anchor="middle" fill="#0f172a" font-size="13" font-weight="700">Re-evaluacion</text>
  <rect x="630" y="140" width="90" height="40" rx="6" fill="#115e59"/><text x="675" y="165" text-anchor="middle" fill="#fff" font-size="9">Eval #10 Odoo</text>
  <rect x="630" y="200" width="90" height="40" rx="6" fill="#0f766e"/><text x="675" y="225" text-anchor="middle" fill="#fff" font-size="9">Eval #25</text>
  <text x="760" y="185" fill="#64748b" font-size="9">evaluacion_padre_id</text>
  <text x="715" y="265" text-anchor="middle" fill="#475569" font-size="10">numero_reevaluacion: 1, 2, 3...</text>
</svg>
